<?xml version="1.0" encoding="UTF-8" standalone="no"?>
<!-- Created with Inkscape (http://www.inkscape.org/) -->

<svg
   xmlns:dc="http://purl.org/dc/elements/1.1/"
   xmlns:cc="http://creativecommons.org/ns#"
   xmlns:rdf="http://www.w3.org/1999/02/22-rdf-syntax-ns#"
   xmlns:svg="http://www.w3.org/2000/svg"
   xmlns="http://www.w3.org/2000/svg"
   xmlns:sodipodi="http://sodipodi.sourceforge.net/DTD/sodipodi-0.dtd"
   xmlns:inkscape="http://www.inkscape.org/namespaces/inkscape"
   width="74.362389mm"
   height="51.365635mm"
   viewBox="0 0 74.362389 51.365635"
   version="1.1"
   id="svg8"
   inkscape:version="0.92.4 (5da689c313, 2019-01-14)"
   sodipodi:docname="12_Zanahorias.svg">
  <defs
     id="defs2" />
  <sodipodi:namedview
     id="base"
     pagecolor="#ffffff"
     bordercolor="#666666"
     borderopacity="1.0"
     inkscape:pageopacity="0.0"
     inkscape:pageshadow="2"
     inkscape:zoom="2.8"
     inkscape:cx="155.51835"
     inkscape:cy="87.156436"
     inkscape:document-units="mm"
     inkscape:current-layer="layer1"
     showgrid="false"
     inkscape:window-width="1920"
     inkscape:window-height="1017"
     inkscape:window-x="-8"
     inkscape:window-y="-8"
     inkscape:window-maximized="1" />
  <metadata
     id="metadata5">
    <rdf:RDF>
      <cc:Work
         rdf:about="">
        <dc:format>image/svg+xml</dc:format>
        <dc:type
           rdf:resource="http://purl.org/dc/dcmitype/StillImage" />
        <dc:title />
      </cc:Work>
    </rdf:RDF>
  </metadata>
  <g
     inkscape:label="Capa 1"
     inkscape:groupmode="layer"
     id="layer1"
     transform="translate(-51.313218,-140.58504)">
    <path
       style="fill:#ff7f2a;stroke:#000000;stroke-width:0.26458332px;stroke-linecap:butt;stroke-linejoin:miter;stroke-opacity:1"
       d="m 68.791666,157.62128 c 1.584287,13.03756 14.638759,17.038 23.812504,24.09598 -2.800432,-9.83102 -2.366765,-21.38689 -8.598963,-29.38764 -3.995998,-2.63166 -14.487524,-7.14496 -15.213541,5.29166 z"
       id="path3713"
       inkscape:connector-curvature="0"
       sodipodi:nodetypes="cccc" />
    <path
       style="fill:#008000;stroke:#000000;stroke-width:0.15926766px;stroke-linecap:butt;stroke-linejoin:miter;stroke-opacity:1"
       d="m 60.961818,148.849 c -1.420854,0.56003 -3.612176,3.48658 -0.231683,5.56343 0.400577,-1.08897 2.437139,-2.35198 3.380784,-3.84351 -0.606163,2.37274 -0.561243,4.4334 1.341282,5.60361 1.289847,-1.36485 2.625577,-2.68938 1.457916,-6.2139 0.41725,1.68932 0.627097,3.44326 2.915835,4.54947 1.804486,-2.04305 0.63141,-3.86521 -0.174951,-5.71457 1.803108,0.0908 2.649606,2.73631 5.656717,-0.38838 -0.938941,-1.54188 -1.996529,-2.83731 -4.082167,-1.99732 0.83321,-0.7096 2.787325,-0.67837 1.691184,-2.66311 -2.056164,-1.84942 -3.210843,-0.7028 -4.315433,0.6103 0.403556,-2.17297 -1.750801,-2.57487 -2.915835,-3.66177 -0.96285,0.87385 -1.842492,1.7765 -0.524848,3.43985 -0.90027,-0.99836 -2.083203,-1.89886 -4.140483,-2.49667 -0.654904,1.28356 -0.615037,2.44685 1.0497,3.32888 -2.997834,-1.39575 -3.616743,-0.3208 -5.015234,-0.0555 0.485274,1.59595 0.619489,3.31343 3.907216,3.93919 z"
       id="path3715"
       inkscape:connector-curvature="0"
       sodipodi:nodetypes="ccccccccccccccccc" />
    <path
       style="fill:#008080;stroke:#000000;stroke-width:0.18717353px;stroke-linecap:butt;stroke-linejoin:miter;stroke-opacity:1"
       d="m 73.06233,153.34058 c -1.559678,-2.80365 -4.398657,-3.89533 -7.142099,-5.11486 -0.625221,-0.99805 0.267985,-1.11809 1.179431,-1.22758 3.890153,2.41607 5.229711,3.6069 6.945525,4.97847 z"
       id="path3717"
       inkscape:connector-curvature="0"
       sodipodi:nodetypes="ccccc" />
    <path
       style="fill:none;stroke:#000000;stroke-width:0.26458332px;stroke-linecap:butt;stroke-linejoin:miter;stroke-opacity:1"
       d="m 77.107142,157.2433 c -0.467657,-0.11723 -0.129826,0.35415 -0.188987,0.47247 -0.216233,0.43246 0.03916,-0.40098 -0.188989,0.28348 -0.0099,0.0299 0.01408,0.0663 0,0.0945 -0.200197,0.40039 0.01122,-0.21141 -0.18899,0.18899 -0.05036,0.10071 0.05036,0.0883 0,0.18899 -0.01992,0.0398 -0.08041,0.0522 -0.09449,0.0945 -0.02278,0.0684 0.03115,0.34682 0,0.37797 -0.02228,0.0223 -0.07222,-0.0223 -0.09449,0 -0.04454,0.0446 0.02817,0.13265 0,0.18899 -0.01992,0.0398 -0.07457,0.0546 -0.09449,0.0945 -0.01408,0.0282 0,0.063 0,0.0945 0,0.067 0.01222,0.54253 0,0.56697 -0.01992,0.0398 -0.07457,0.0547 -0.0945,0.0945 -0.01408,0.0282 0,0.063 0,0.0945 0,0.0802 0.01566,0.50427 0,0.56697 -0.01709,0.0683 -0.07222,0.12217 -0.09449,0.18899 -0.01778,0.0533 0,0.22138 0,0.28348 0,0.18899 0,0.37797 0,0.56696 0,0.0229 -0.003,0.28045 0,0.28348 0.04455,0.0446 0.132644,-0.0282 0.18899,0 0.03984,0.0199 0.06299,0.063 0.09449,0.0945 0.0315,0.0315 0.07457,0.0547 0.09449,0.0945 0.01408,0.0282 -0.02228,0.0722 0,0.0945 0.02228,0.0223 0.06632,-0.0141 0.09449,0 0.03984,0.0199 0.063,0.063 0.0945,0.0945 0.0315,0.0315 0.063,0.063 0.09449,0.0945"
       id="path3721"
       inkscape:connector-curvature="0" />
    <path
       style="fill:none;stroke:#000000;stroke-width:0.26458332px;stroke-linecap:butt;stroke-linejoin:miter;stroke-opacity:1"
       d="m 80.508926,162.34598 c 0,0.12599 0.02072,0.2537 0,0.37797 -0.02315,0.13895 -0.144441,0.24435 -0.188986,0.37798 -0.01,0.0299 0.01408,0.0663 0,0.0945 -0.216231,0.43246 0.03916,-0.40098 -0.188989,0.28348 -0.01992,0.0598 0.02817,0.13264 0,0.18899 -0.01992,0.0398 -0.07457,0.0546 -0.09449,0.0945 -0.01408,0.0282 0.01408,0.0663 0,0.0945 -0.01992,0.0398 -0.07457,0.0547 -0.09449,0.0945 -0.01408,0.0282 0.0099,0.0646 0,0.0945 -0.02228,0.0668 -0.07741,0.12066 -0.0945,0.18899 -0.01527,0.0611 0,0.12599 0,0.18899 0,0.0315 0.01408,0.0663 0,0.0945 -0.01992,0.0398 -0.07457,0.0547 -0.09449,0.0945 -0.01241,0.0248 0,0.32856 0,0.37797 0,0.0491 -0.0084,0.45991 0,0.47247 0.063,0.063 0.125992,0.126 0.188989,0.18899 0,0.0315 -0.01408,0.0663 0,0.0945 0.01992,0.0398 0.125992,0.063 0.09449,0.0945 -0.0315,0.0315 -0.09449,-0.13904 -0.09449,-0.0945 0,0.0704 0.07222,0.12217 0.09449,0.18898 0.0099,0.0299 -0.01408,0.0663 0,0.0945 0.07485,0.14969 0.316267,0.0945 0.09449,0.0945"
       id="path3723"
       inkscape:connector-curvature="0" />
    <path
       style="fill:none;stroke:#000000;stroke-width:0.26458332px;stroke-linecap:butt;stroke-linejoin:miter;stroke-opacity:1"
       d="m 83.627231,166.40923 c -0.139916,0.16262 -0.166277,0.39115 -0.283482,0.56696 -0.04942,0.0741 -0.149146,0.1093 -0.188989,0.18899 -0.01408,0.0282 0.01408,0.0663 0,0.0945 -0.01992,0.0398 -0.08041,0.0522 -0.09449,0.0945 -0.01791,0.0538 0,0.38348 0,0.47247 0,0.08 -0.01693,0.32718 0,0.37798 0.01408,0.0423 0.07457,0.0547 0.09449,0.0945 0.01408,0.0282 -0.01408,0.0663 0,0.0945 0.01992,0.0398 0.07458,0.0547 0.0945,0.0945 0.02926,0.0585 -0.02796,0.35002 0,0.37798 0.125992,0.12599 0.09449,-0.15749 0.09449,0.0945"
       id="path3725"
       inkscape:connector-curvature="0" />
    <text
       xml:space="preserve"
       style="font-style:normal;font-weight:normal;font-size:10.58333302px;line-height:1.25;font-family:sans-serif;letter-spacing:0px;word-spacing:0px;fill:#000000;fill-opacity:1;stroke:none;stroke-width:0.26458332"
       x="68.130211"
       y="181.71727"
       id="text3731"><tspan
         sodipodi:role="line"
         id="tspan3729"
         x="68.130211"
         y="191.08104"
         style="stroke-width:0.26458332" /></text>
    <text
       xml:space="preserve"
       style="font-style:normal;font-weight:normal;font-size:10.58333302px;line-height:1.25;font-family:sans-serif;letter-spacing:0px;word-spacing:0px;fill:#000000;fill-opacity:1;stroke:none;stroke-width:0.26458332"
       x="50.837795"
       y="189.74925"
       id="text3735"><tspan
         sodipodi:role="line"
         id="tspan3733"
         x="50.837795"
         y="189.74925"
         style="stroke-width:0.26458332">Zanahoria svg</tspan></text>
  </g>
</svg>
